<svg width="16" height="12" viewBox="0 0 16 12" fill="none" xmlns="http://www.w3.org/2000/svg">
							<path fill-rule="evenodd" clip-rule="evenodd" d="M15.3 1.4C15.4857 1.4 15.6637 1.32625 15.795 1.19497C15.9263 1.0637 16 0.885652 16 0.7C16 0.514348 15.9263 0.336301 15.795 0.205025C15.6637 0.0737498 15.4857 0 15.3 0H0.7C0.514348 0 0.336301 0.0737498 0.205026 0.205025C0.0737505 0.336301 0 0.514348 0 0.7C0 0.885652 0.0737505 1.0637 0.205026 1.19497C0.336301 1.32625 0.514348 1.4 0.7 1.4H15.3ZM0.7 5.3C0.514348 5.3 0.336301 5.37375 0.205026 5.50503C0.0737505 5.6363 0 5.81435 0 6C0 6.18565 0.0737505 6.3637 0.205026 6.49497C0.336301 6.62625 0.514348 6.7 0.7 6.7H15.3C15.4857 6.7 15.6637 6.62625 15.795 6.49497C15.9263 6.3637 16 6.18565 16 6C16 5.81435 15.9263 5.6363 15.795 5.50503C15.6637 5.37375 15.4857 5.3 15.3 5.3H0.7ZM4.7 10.6C4.51435 10.6 4.3363 10.6737 4.20503 10.805C4.07375 10.9363 4 11.1143 4 11.3C4 11.4857 4.07375 11.6637 4.20503 11.795C4.3363 11.9262 4.51435 12 4.7 12H15.3C15.4857 12 15.6637 11.9262 15.795 11.795C15.9263 11.6637 16 11.4857 16 11.3C16 11.1143 15.9263 10.9363 15.795 10.805C15.6637 10.6737 15.4857 10.6 15.3 10.6H4.7Z" fill="#12344D"/>
							</svg>