<svg width="24" height="24" viewBox="0 0 24 24" fill="none" xmlns="http://www.w3.org/2000/svg">
<path fill-rule="evenodd" clip-rule="evenodd" d="M6.2947 6.26853C6.62274 5.94049 7.1546 5.94049 7.48264 6.26853L17.7749 16.5608C18.103 16.8888 18.103 17.4207 17.7749 17.7487C17.4469 18.0768 16.915 18.0768 16.587 17.7487L6.2947 7.45647C5.96666 7.12843 5.96666 6.59657 6.2947 6.26853Z" fill="#333333"/>
<path fill-rule="evenodd" clip-rule="evenodd" d="M6.24045 17.7487C5.91241 17.4207 5.91241 16.8888 6.24045 16.5608L16.5327 6.26851C16.8608 5.94047 17.3926 5.94047 17.7207 6.26851C18.0487 6.59655 18.0487 7.12841 17.7207 7.45645L7.42839 17.7487C7.10035 18.0768 6.56849 18.0768 6.24045 17.7487Z" fill="#333333"/>
</svg>
