
								<svg width="25" height="24" viewBox="0 0 25 24" fill="none" xmlns="http://www.w3.org/2000/svg">
								<rect x="0.5" width="24" height="24" rx="4" fill="#2962FF"/>
								<path fill-rule="evenodd" clip-rule="evenodd" d="M19.5757 10.6833C19.3895 9.77317 19.0269 8.9083 18.5083 8.13752C18.2522 7.76041 17.961 7.40834 17.6387 7.086C16.6569 6.09884 15.4055 5.42361 14.0414 5.14504C12.6607 4.86193 11.2271 4.99521 9.92229 5.52797C8.61749 6.06073 7.50029 6.96897 6.71236 8.13752C6.45599 8.51848 6.23753 8.92363 6.0601 9.34716C5.69045 10.2229 5.5 11.1638 5.5 12.1143C5.5 13.0648 5.69045 14.0058 6.0601 14.8815C6.23879 15.3052 6.45858 15.7103 6.71631 16.0911C7.367 17.0566 8.24465 17.8476 9.27227 18.3948C10.2999 18.9421 11.4461 19.2288 12.6104 19.2299C14.4963 19.2292 16.3049 18.4799 17.6387 17.1466C17.9609 16.8242 18.2521 16.4721 18.5083 16.0951C19.0375 15.3095 19.4045 14.4261 19.5877 13.4968C19.771 12.5675 19.7669 11.611 19.5757 10.6833ZM18.6823 12.055C17.2905 11.7756 15.8643 11.7089 14.4525 11.8574L14.322 11.5451C14.1955 11.2486 14.0611 10.9521 13.9267 10.6635C16.3223 9.68317 17.2987 8.29169 17.3066 8.26006C18.1862 9.33019 18.6718 10.6698 18.6823 12.055ZM16.6227 7.55246C16.6227 7.57618 15.7412 8.89255 13.4603 9.75433C12.7862 8.51791 12.028 7.3292 11.1912 6.19656C12.1397 5.96559 13.1299 5.96718 14.0777 6.20119C15.0254 6.4352 15.9026 6.8947 16.6346 7.5406L16.6227 7.55246ZM10.0211 6.60768C10.8394 7.74006 11.5918 8.91872 12.2743 10.1378C10.4477 10.6133 8.56828 10.8563 6.68074 10.8612C6.87351 9.94478 7.27523 9.08524 7.85461 8.34952C8.434 7.61381 9.17541 7.02177 10.0211 6.61954V6.60768ZM6.53842 12.1143C6.53842 12.0511 6.53842 11.9878 6.53842 11.9246C8.6469 11.9322 10.7458 11.6407 12.7724 11.0588C12.9464 11.3988 13.1124 11.7467 13.2666 12.0906L13.0254 12.1617C9.75228 13.2212 8.09198 16.1702 8.09198 16.1702C7.09048 15.0568 6.53701 13.6118 6.53842 12.1143ZM12.6104 18.1902C11.1974 18.1927 9.82817 17.7004 8.74029 16.7987L8.87865 16.9054C8.87865 16.9054 10.0409 14.3636 13.6421 13.1105H13.6816C14.26 14.5982 14.6955 16.1377 14.9822 17.7079C14.2322 18.027 13.4254 18.191 12.6104 18.1902ZM16.0021 17.1545C15.7316 15.6738 15.3348 14.2191 14.8162 12.8061C16.0814 12.6177 17.3726 12.7081 18.5993 13.071C18.4692 13.8932 18.1716 14.68 17.7248 15.3825C17.278 16.0849 16.6917 16.6881 16.0021 17.1545Z" fill="white"/>
								</svg>