<svg width="25" height="24" viewBox="0 0 25 24" fill="none" xmlns="http://www.w3.org/2000/svg">
<rect x="0.5" width="24" height="24" rx="4" fill="#2962FF"/>
<path d="M8.63284 18.0774H5.86741V9.19645H8.63284V18.0774ZM7.17507 8.08633H7.15531C6.94356 8.10212 6.73082 8.07397 6.53046 8.00364C6.3301 7.93331 6.14643 7.82233 5.991 7.67765C5.83557 7.53298 5.71172 7.35773 5.62722 7.16292C5.54273 6.96811 5.49942 6.75794 5.50001 6.54559C5.50001 5.66855 6.16766 5.00485 7.19482 5.00485C7.40759 4.98797 7.62154 5.01525 7.82326 5.08499C8.02499 5.15472 8.21012 5.2654 8.36703 5.41008C8.52395 5.55475 8.64927 5.7303 8.73512 5.92571C8.82098 6.12111 8.86551 6.33216 8.86593 6.54559C8.86593 7.40682 8.21408 8.08633 7.17507 8.08633ZM19.7222 18.0774H16.5617V13.4829C16.5617 12.2977 16.0719 11.4602 14.9815 11.4602C14.6487 11.4601 14.3245 11.5651 14.0549 11.7602C13.7853 11.9553 13.5842 12.2305 13.4802 12.5466C13.4142 12.7815 13.3914 13.0265 13.4131 13.2695V18.0774H10.3237C10.3237 18.0774 10.3632 9.93917 10.3237 9.2004H13.4368V10.6068C13.6225 9.99843 14.622 9.12929 16.2022 9.12929C18.1775 9.12929 19.7222 10.4053 19.7222 13.155V18.0774Z" fill="white"/>
</svg>