<svg fill="none" xmlns="http://www.w3.org/2000/svg" viewBox="0 0 1000 1000"><path d="M0 400c0-140.01 0-210.02 27.25-263.5A250 250 0 0 1 136.5 27.25C189.98 0 260 0 400 0h200c140.01 0 210.02 0 263.5 27.25A250 250 0 0 1 972.75 136.5C1000 189.98 1000 260 1000 400v200c0 140.01 0 210.02-27.25 263.5A250 250 0 0 1 863.5 972.75C810.02 1000 740 1000 600 1000H400c-140.01 0-210.02 0-263.5-27.25A250 250 0 0 1 27.25 863.5C0 810.02 0 740 0 600V400Z" fill="#179DE3"></path><path d="M774.8 346.19a167.76 167.76 0 0 1-98.91-98.91 167.9 167.9 0 0 1-98.91 98.9 167.96 167.96 0 0 1 98.9 98.92 167.9 167.9 0 0 1 98.92-98.91Z" fill="#fff"></path><path d="M501.22 250h-250v500h499.9V500l-249.9 249.9V250Z" fill="#fff"></path></svg>