<svg id="Layer_1" width="149" height="28"  data-name="Layer 1" xmlns="http://www.w3.org/2000/svg" xmlns:xlink="http://www.w3.org/1999/xlink" viewBox="0 0 188.23 28"><defs><style>.cls-1{fill:#e9441e;}.cls-2{fill:url(#linear-gradient);}.cls-3{fill:#fff;}</style><linearGradient id="linear-gradient" x1="7.53" y1="25.12" x2="15.35" y2="15.71" gradientUnits="userSpaceOnUse"><stop offset="0.67" stop-color="#efefef"/><stop offset="1" stop-color="#fff"/></linearGradient></defs><path d="M36.82,4.11,41.57,19h.18L46.51,4.11h4.6L44.34,23.76H39L32.2,4.11Z"/><path d="M57.62,4.11V23.76H53.47V4.11Z"/><path d="M64.6,4.11,69.35,19h.18L74.29,4.11h4.6L72.12,23.76H66.77L60,4.11Z"/><path d="M81.25,23.76V4.11H94.49V7.53H85.41v4.68h8.4v3.43h-8.4v4.69h9.12v3.43Z"/><path d="M97.8,23.76V4.11H102v8.66h.25l7.07-8.66h5L107,12.91l7.38,10.85h-5L104,15.68l-2,2.49v5.59Z"/><path d="M116.43,23.76V4.11h7.75A8.41,8.41,0,0,1,128,4.9a5.54,5.54,0,0,1,2.4,2.24,6.6,6.6,0,0,1,.83,3.39,6.45,6.45,0,0,1-.84,3.36A5.46,5.46,0,0,1,127.94,16a9,9,0,0,1-3.86.75h-5.19V13.45h4.52a5.31,5.31,0,0,0,2-.32,2.41,2.41,0,0,0,1.18-1,3.13,3.13,0,0,0,.39-1.62,3.2,3.2,0,0,0-.39-1.65,2.47,2.47,0,0,0-1.18-1,4.82,4.82,0,0,0-2-.36h-2.81V23.76ZM127,14.82l4.88,8.94h-4.58l-4.78-8.94Z"/><path d="M137.55,23.76h-4.46l6.79-19.65h5.35L152,23.76h-4.45L142.63,8.6h-.15ZM137.27,16h10.51v3.25H137.27Z"/><path d="M162.23,4.11h4.1v13.7a6.33,6.33,0,0,1-.84,3.3,5.8,5.8,0,0,1-2.36,2.16,7.74,7.74,0,0,1-3.5.75,8.14,8.14,0,0,1-3.22-.62,5.17,5.17,0,0,1-2.29-1.92,5.75,5.75,0,0,1-.83-3.25h4.13a3,3,0,0,0,.32,1.33,2.06,2.06,0,0,0,.84.84,2.5,2.5,0,0,0,1.26.3,2.33,2.33,0,0,0,1.3-.34,2,2,0,0,0,.81-1,3.92,3.92,0,0,0,.28-1.58Z"/><path d="M173.15,23.76h-4.46l6.79-19.65h5.35l6.77,19.65h-4.45L178.23,8.6h-.15ZM172.87,16h10.51v3.25H172.87Z"/><rect class="cls-1" y="-0.03" width="28.05" height="28.05"/><path class="cls-2" d="M22.48,7.26,19.32,17.87c-1.73,2.89-3.76,2.66-4.77,1.7a2.18,2.18,0,0,1-.52-.78l3.85-12.9a2.4,2.4,0,0,1,4.6,1.37Z"/><path class="cls-3" d="M19.32,17.87l-.78,2.59a4.71,4.71,0,0,1-9,0L5.57,7.26a2.4,2.4,0,0,1,2.3-3.08h0a2.39,2.39,0,0,1,2.29,1.68v0L14,18.79a2.18,2.18,0,0,0,.52.78C15.56,20.53,17.59,20.76,19.32,17.87Z"/></svg>