<svg class='quotesvg' width="18" height="15" viewBox="0 0 18 15" fill="none" xmlns="http://www.w3.org/2000/svg">
						<path d="M10.5904 14.5108V9.94217C10.5904 8.01446 10.8024 6.33735 11.2265 4.91084C11.6506 3.48434 12.306 2.17349 13.1928 0.978313H17.4145C16.4506 2.21205 15.6988 3.48434 15.159 4.79518C14.6193 6.06747 14.3494 7.26265 14.3494 8.38072H17.3566V14.5108H10.5904ZM0.527711 14.5108V9.94217C0.527711 8.05301 0.720482 6.39518 1.10602 4.96867C1.53012 3.50361 2.18554 2.17349 3.07229 0.978313H7.35181C6.38795 2.21205 5.63614 3.48434 5.09639 4.79518C4.55663 6.06747 4.28675 7.26265 4.28675 8.38072H7.29398V14.5108H0.527711Z" fill="black"/>
						</svg>