<svg width="149" height="28" viewBox="0 0 149 28" fill="none" xmlns="http://www.w3.org/2000/svg">
							<path d="M16.6667 4H3.33333C1.49238 4 0 5.49238 0 7.33333V20.6667C0 22.5076 1.49238 24 3.33333 24H16.6667C18.5076 24 20 22.5076 20 20.6667V7.33333C20 5.49238 18.5076 4 16.6667 4Z" fill="#1164FF"/>
							<path d="M15.3112 19.4111L12.8423 19.3911C12.8067 19.3904 12.772 19.3807 12.7412 19.3628C12.7105 19.3449 12.6849 19.3195 12.6667 19.2889L11.1112 16.72C11.0917 16.6896 11.0652 16.6645 11.0338 16.6467C11.0024 16.6288 10.9672 16.6189 10.9312 16.6178L9.39117 16.6045C9.35675 16.6018 9.32341 16.5912 9.2938 16.5735C9.26418 16.5558 9.23911 16.5314 9.22056 16.5023C9.20201 16.4731 9.19051 16.4401 9.18695 16.4058C9.18339 16.3714 9.18788 16.3367 9.20006 16.3044L10.2223 14.1644C10.2402 14.1288 10.2674 14.0986 10.3011 14.0771C10.3347 14.0556 10.3735 14.0436 10.4134 14.0422H11.6378C11.6919 14.0421 11.744 14.0224 11.7845 13.9867C13.0267 12.8222 12.2289 11.3844 11.0823 11.3844H9.22228C9.18261 11.3833 9.14397 11.3716 9.11036 11.3505C9.07675 11.3294 9.04941 11.2997 9.03117 11.2644L7.90672 8.88889C7.89411 8.85648 7.88929 8.82155 7.89263 8.78693C7.89598 8.7523 7.90741 8.71895 7.926 8.68955C7.94459 8.66015 7.96983 8.63552 7.99967 8.61766C8.02952 8.59979 8.06314 8.58917 8.09783 8.58667H11.0712C11.8932 8.58601 12.6955 8.83776 13.3698 9.30789C14.0441 9.77802 14.5577 10.4439 14.8413 11.2154C15.1249 11.9869 15.1648 12.8269 14.9555 13.6218C14.7462 14.4167 14.2979 15.1281 13.6712 15.66C13.6355 15.6934 13.6118 15.7376 13.6037 15.7858C13.5957 15.834 13.6038 15.8835 13.6267 15.9267L15.4934 19.0889C15.51 19.1216 15.5182 19.1578 15.5174 19.1945C15.5166 19.2311 15.5067 19.267 15.4887 19.2989C15.4706 19.3308 15.445 19.3577 15.414 19.3773C15.383 19.3969 15.3477 19.4085 15.3112 19.4111Z" fill="white"/>
							<path d="M9.89109 13.96L9.85109 14.0422L8.65109 16.6L7.4022 19.2667C7.38408 19.3026 7.35652 19.333 7.32247 19.3546C7.28841 19.3761 7.24915 19.388 7.20887 19.3889H4.68887C4.65398 19.3867 4.6201 19.3763 4.58997 19.3586C4.55985 19.3409 4.53433 19.3163 4.51549 19.2868C4.49666 19.2574 4.48503 19.2239 4.48157 19.1891C4.4781 19.1544 4.48288 19.1193 4.49553 19.0867L6.88887 14.0244C6.90207 13.9955 6.90891 13.964 6.90891 13.9322C6.90891 13.9004 6.90207 13.8689 6.88887 13.84L4.49998 8.88889C4.48693 8.85635 4.48176 8.82119 4.48489 8.78628C4.48803 8.75137 4.49938 8.71769 4.51801 8.688C4.53665 8.65831 4.56205 8.63345 4.59213 8.61545C4.62221 8.59746 4.65612 8.58683 4.69109 8.58444H7.21109C7.25076 8.58556 7.2894 8.59728 7.32301 8.61838C7.35662 8.63948 7.38396 8.6692 7.4022 8.70444L8.67109 11.3711L9.89109 13.96Z" fill="white"/>
							<path d="M27.9375 21H31.8864V16.1989H33.25L35.8068 21H40.0966L37.142 15.5739C38.6903 14.8281 39.6136 13.4148 39.6136 11.3977C39.6136 8.30114 37.4474 6.45455 34.2159 6.45455H27.9375V21ZM31.8864 13.1307V9.60795H33.2784C34.6634 9.60795 35.4943 10.1477 35.4943 11.3977C35.4943 12.6406 34.6634 13.1307 33.2784 13.1307H31.8864ZM45.0753 21L45.9134 18.2159H50.7145L51.5526 21H55.8139L51.0128 6.45455H45.6151L40.8139 21H45.0753ZM46.8082 15.2614L48.2571 10.4602H48.3707L49.8196 15.2614H46.8082ZM65.9773 11.2557H69.9688C69.6634 8.33665 67.0142 6.25568 63.5767 6.25568C59.6562 6.25568 56.4744 8.95455 56.4744 13.7557C56.4744 18.358 59.358 21.1989 63.6051 21.1989C67.4119 21.1989 70.1392 18.8693 70.1392 14.892V12.875H63.6903V15.6875H66.3324C66.2969 16.9517 65.402 17.7614 63.6335 17.7614C61.5881 17.7614 60.5369 16.2557 60.5369 13.6989C60.5369 11.1776 61.6733 9.69318 63.6619 9.69318C64.8977 9.69318 65.7358 10.2614 65.9773 11.2557ZM71.9805 21H75.9293V15.3182H81.1566V21H85.1055V6.45455H81.1566V12.1364H75.9293V6.45455H71.9805V21ZM95.5884 6.45455V15.4318C95.5884 16.7884 94.6154 17.7614 93.2589 17.7614C91.9023 17.7614 90.9293 16.7884 90.9293 15.4318V6.45455H86.9805V15.7727C86.9805 19.0966 89.4947 21.1705 93.2589 21.1705C96.9947 21.1705 99.5373 19.0966 99.5373 15.7727V6.45455H95.5884ZM101.414 21H105.363V16.1989H106.727L109.283 21H113.573L110.619 15.5739C112.167 14.8281 113.09 13.4148 113.09 11.3977C113.09 8.30114 110.924 6.45455 107.692 6.45455H101.414V21ZM105.363 13.1307V9.60795H106.755C108.14 9.60795 108.971 10.1477 108.971 11.3977C108.971 12.6406 108.14 13.1307 106.755 13.1307H105.363ZM118.552 21L119.39 18.2159H124.191L125.029 21H129.29L124.489 6.45455H119.092L114.29 21H118.552ZM120.285 15.2614L121.734 10.4602H121.847L123.296 15.2614H120.285ZM130.691 6.45455V21H134.555V12.5341H134.669L137.907 20.8864H140.237L143.475 12.5909H143.589V21H147.453V6.45455H142.538L139.157 14.6932H138.987L135.606 6.45455H130.691Z" fill="black"/>
							</svg>