<svg width="16" height="12" viewBox="0 0 16 12" fill="none" xmlns="http://www.w3.org/2000/svg">
										<path d="M1.67372 5.32223H12.5837L9.18373 1.92223C9.04676 1.79198 8.96923 1.61124 8.96923 1.42223C8.96923 1.23322 9.04676 1.05249 9.18373 0.922233C9.31398 0.785269 9.49472 0.707733 9.68373 0.707733C9.87274 0.707733 10.0535 0.785269 10.1837 0.922233L14.7737 5.52223C14.8484 5.58034 14.9156 5.64752 14.9737 5.72223C15.0438 5.89542 15.0438 6.08905 14.9737 6.26223C14.9332 6.34466 14.8828 6.42189 14.8237 6.49223L10.2237 11.0822C10.092 11.2166 9.91184 11.2923 9.72373 11.2922C9.53838 11.293 9.36098 11.217 9.23373 11.0822C9.09676 10.952 9.01923 10.7712 9.01923 10.5822C9.01923 10.3932 9.09676 10.2125 9.23373 10.0822L12.5837 6.72223H1.67372C1.28713 6.72223 0.973724 6.40883 0.973724 6.02223C0.973724 5.63563 1.28713 5.32223 1.67372 5.32223Z" fill="#e9441e"/>
										</svg>